# xmcd CD database file
#
# Track frame offsets:
#	150
#	16587
#	34022
#	54605
#	72260
#	90722
#	106050
#	122915
#	137075
#	156752
#	175090
#	194257
#	210157
#	227142
#	245210
#
# Disc length: 3472 seconds
#
# Revision: 0
# Processed by: cddbd v1.5.1PL0 Copyright (c) Steve Scherf et al.
# Submitted via: CDex 1.51
#
DISCID=c40d8e0f
DTITLE=トノ&ァdャツ - ・xニWョネヲ讙コヲ^セミ1
DYEAR=1988
DGENRE=・シェセェコ
TTITLE0=ョ?lェコ、゜ア。
TTITLE1=キRォ~キ|トケ
TTITLE2=、鬚鬩B
TTITLE3=ュキュクィF
TTITLE4=、゜ィxカテチVチV
TTITLE5=ヲャ、」ヲ^ェコキR
TTITLE6=ェ?ハェコエ茫、
TTITLE7=キR、@、遲ネヲh、ヨ
TTITLE8=オh、J、゜ィx
TTITLE9=チソ、ーサ鬚s嫌?サ}
TTITLE10=キRア。トF、lァレーンァA
TTITLE11=オ・オL、H
TTITLE12=カヒ、゜ェコゥメヲb
TTITLE13=オLィ・ェコオイァス
TTITLE14=カ?９錣H
EXTD=YEAR: 1988
EXTT0=
EXTT1=
EXTT2=
EXTT3=
EXTT4=
EXTT5=
EXTT6=
EXTT7=
EXTT8=
EXTT9=
EXTT10=
EXTT11=
EXTT12=
EXTT13=
EXTT14=
PLAYORDER=
